<svg xmlns="http://www.w3.org/2000/svg" viewBox="0 0 1100 900" width="1100" height="900">
<path d="M689.50,231.81 Q700.00,250.00 689.50,268.19 L635.50,361.72 Q625.00,379.90 604.00,379.90 L496.00,379.90 Q475.00,379.90 464.50,361.72 L410.50,268.19 Q400.00,250.00 410.50,231.81 L464.50,138.28 Q475.00,120.10 496.00,120.10 L604.00,120.10 Q625.00,120.10 635.50,138.28 Z" fill="#0F9E8E"/>
<path transform="translate(486.52,299.68)" d="M9.66 0.0V-68.44800000000001H27.048000000000002V0.0ZM18.354 -76.45200000000001Q13.662 -76.45200000000001 10.419 -79.488Q7.176 -82.524 7.176 -87.492Q7.176 -92.46000000000001 10.419 -95.49600000000001Q13.662 -98.53200000000001 18.354 -98.53200000000001Q23.184 -98.53200000000001 26.358 -95.49600000000001Q29.532 -92.46000000000001 29.532 -87.492Q29.532 -82.524 26.358 -79.488Q23.184 -76.45200000000001 18.354 -76.45200000000001Z" fill="#FFFFFF"/>
<path transform="translate(486.52,299.68)" d="M41.952000000000005 0.0 67.34400000000001 -96.60000000000001H99.084L124.47600000000001 0.0H105.70800000000001L100.464 -21.252000000000002H65.964L60.720000000000006 0.0ZM70.242 -38.088H96.186L84.45600000000002 -85.146H81.97200000000001Z" fill="#FFFFFF"/>
<circle cx="700.00" cy="250.00" r="20.25" fill="#FFFFFF"/>
<circle cx="700.00" cy="250.00" r="11.25" fill="#0B7A6E"/>
<circle cx="475.00" cy="379.90" r="20.25" fill="#FFFFFF"/>
<circle cx="475.00" cy="379.90" r="11.25" fill="#0B7A6E"/>
<circle cx="475.00" cy="120.10" r="20.25" fill="#FFFFFF"/>
<circle cx="475.00" cy="120.10" r="11.25" fill="#0B7A6E"/>
<path transform="translate(265.60,560.00)" d="M7.92 0.0V-84.0H23.759999999999998V0.0Z" fill="#606062"/>
<path transform="translate(265.60,560.00)" d="M38.64 0.0V-59.519999999999996H53.519999999999996V-51.72H55.67999999999999Q57.12 -54.839999999999996 61.08 -57.66Q65.03999999999999 -60.48 73.08 -60.48Q80.03999999999999 -60.48 85.25999999999999 -57.3Q90.47999999999999 -54.12 93.35999999999999 -48.54Q96.24 -42.96 96.24 -35.519999999999996V0.0H81.11999999999999V-34.32Q81.11999999999999 -41.04 77.82 -44.4Q74.52 -47.76 68.39999999999999 -47.76Q61.44 -47.76 57.599999999999994 -43.14Q53.76 -38.519999999999996 53.76 -30.24V0.0Z" fill="#606062"/>
<path transform="translate(265.60,560.00)" d="M108.24 -29.52V-31.439999999999998Q108.24 -40.8 111.96 -47.459999999999994Q115.67999999999999 -54.12 121.85999999999999 -57.66Q128.04 -61.199999999999996 135.36 -61.199999999999996Q143.51999999999998 -61.199999999999996 147.71999999999997 -58.31999999999999Q151.92 -55.44 153.84 -52.32H156.0V-59.519999999999996H170.88V10.559999999999999Q170.88 16.68 167.28 20.34Q163.68 24.0 157.68 24.0H117.84V10.799999999999999H152.4Q155.76 10.799999999999999 155.76 7.199999999999999V-8.28H153.6Q152.4 -6.359999999999999 150.24 -4.38Q148.07999999999998 -2.4 144.48 -1.08Q140.88 0.24 135.36 0.24Q128.04 0.24 121.85999999999999 -3.3Q115.67999999999999 -6.84 111.96 -13.5Q108.24 -20.16 108.24 -29.52ZM139.68 -12.959999999999999Q146.64 -12.959999999999999 151.32 -17.4Q156.0 -21.84 156.0 -29.88V-31.08Q156.0 -39.24 151.38 -43.620000000000005Q146.76 -48.0 139.68 -48.0Q132.72 -48.0 128.04 -43.620000000000005Q123.36 -39.24 123.36 -31.08V-29.88Q123.36 -21.84 128.04 -17.4Q132.72 -12.959999999999999 139.68 -12.959999999999999Z" fill="#606062"/>
<path transform="translate(265.60,560.00)" d="M213.36 1.68Q204.48000000000002 1.68 197.70000000000002 -2.1Q190.92000000000002 -5.88 187.14000000000001 -12.78Q183.36 -19.68 183.36 -29.04V-30.48Q183.36 -39.839999999999996 187.08 -46.739999999999995Q190.8 -53.64 197.52 -57.42Q204.24 -61.199999999999996 213.12 -61.199999999999996Q221.88 -61.199999999999996 228.36 -57.3Q234.84 -53.4 238.44 -46.5Q242.04000000000002 -39.6 242.04000000000002 -30.48V-25.32H198.72Q198.96 -19.2 203.28 -15.36Q207.6 -11.52 213.84 -11.52Q220.2 -11.52 223.2 -14.28Q226.2 -17.04 227.76 -20.4L240.12 -13.92Q238.44 -10.799999999999999 235.26 -7.14Q232.07999999999998 -3.48 226.8 -0.9Q221.52 1.68 213.36 1.68ZM198.84 -36.6H226.68Q226.2 -41.76 222.54 -44.879999999999995Q218.88 -48.0 213.0 -48.0Q206.88 -48.0 203.28 -44.879999999999995Q199.68 -41.76 198.84 -36.6Z" fill="#606062"/>
<path transform="translate(265.60,560.00)" d="M254.04 0.0V-59.519999999999996H268.91999999999996V-51.72H271.08Q272.52 -54.839999999999996 276.48 -57.66Q280.44 -60.48 288.47999999999996 -60.48Q295.44 -60.48 300.65999999999997 -57.3Q305.88 -54.12 308.76 -48.54Q311.64 -42.96 311.64 -35.519999999999996V0.0H296.52V-34.32Q296.52 -41.04 293.21999999999997 -44.4Q289.91999999999996 -47.76 283.79999999999995 -47.76Q276.84 -47.76 273.0 -43.14Q269.15999999999997 -38.519999999999996 269.15999999999997 -30.24V0.0Z" fill="#606062"/>
<path transform="translate(265.60,560.00)" d="M326.52 0.0V-59.519999999999996H341.64V0.0ZM334.08 -66.48Q330.0 -66.48 327.18 -69.12Q324.36 -71.75999999999999 324.36 -76.08Q324.36 -80.39999999999999 327.18 -83.03999999999999Q330.0 -85.67999999999999 334.08 -85.67999999999999Q338.28 -85.67999999999999 341.03999999999996 -83.03999999999999Q343.8 -80.39999999999999 343.8 -76.08Q343.8 -71.75999999999999 341.03999999999996 -69.12Q338.28 -66.48 334.08 -66.48Z" fill="#606062"/>
<path transform="translate(265.60,560.00)" d="M384.11999999999995 1.68Q375.23999999999995 1.68 368.4599999999999 -2.1Q361.67999999999995 -5.88 357.9 -12.78Q354.11999999999995 -19.68 354.11999999999995 -29.04V-30.48Q354.11999999999995 -39.839999999999996 357.8399999999999 -46.739999999999995Q361.55999999999995 -53.64 368.28 -57.42Q374.99999999999994 -61.199999999999996 383.88 -61.199999999999996Q392.64 -61.199999999999996 399.12 -57.3Q405.59999999999997 -53.4 409.19999999999993 -46.5Q412.79999999999995 -39.6 412.79999999999995 -30.48V-25.32H369.47999999999996Q369.71999999999997 -19.2 374.03999999999996 -15.36Q378.35999999999996 -11.52 384.59999999999997 -11.52Q390.96 -11.52 393.96 -14.28Q396.96 -17.04 398.52 -20.4L410.88 -13.92Q409.19999999999993 -10.799999999999999 406.02 -7.14Q402.84 -3.48 397.55999999999995 -0.9Q392.28 1.68 384.11999999999995 1.68ZM369.59999999999997 -36.6H397.43999999999994Q396.96 -41.76 393.29999999999995 -44.879999999999995Q389.64 -48.0 383.76 -48.0Q377.64 -48.0 374.03999999999996 -44.879999999999995Q370.43999999999994 -41.76 369.59999999999997 -36.6Z" fill="#606062"/>
<path transform="translate(265.60,560.00)" d="M424.79999999999995 0.0V-59.519999999999996H439.67999999999995V-52.8H441.84Q443.15999999999997 -56.4 446.21999999999997 -58.08Q449.28 -59.76 453.35999999999996 -59.76H460.55999999999995V-46.32H453.12Q447.35999999999996 -46.32 443.64 -43.26Q439.91999999999996 -40.199999999999996 439.91999999999996 -33.839999999999996V0.0Z" fill="#606062"/>
<path transform="translate(265.60,560.00)" d="M470.4 0.0V-84.0H486.23999999999995V0.0Z" fill="#0F9E8E"/>
<path transform="translate(265.60,560.00)" d="M494.88 0.0 516.9599999999999 -84.0H544.56L566.64 0.0H550.3199999999999L545.76 -18.48H515.76L511.2 0.0ZM519.48 -33.12H542.04L531.8399999999999 -74.03999999999999H529.68Z" fill="#0F9E8E"/>
<path transform="translate(359.92,640.00)" d="M2.1 0.0V-21.599999999999998H10.83Q11.145 -21.599999999999998 11.61 -21.5775Q12.075 -21.555 12.495 -21.48Q14.295 -21.195 15.502500000000001 -20.25Q16.71 -19.305 17.310000000000002 -17.865000000000002Q17.91 -16.425 17.91 -14.684999999999999Q17.91 -12.93 17.310000000000002 -11.489999999999998Q16.71 -10.049999999999999 15.502500000000001 -9.105Q14.295 -8.16 12.495 -7.875Q12.075 -7.8149999999999995 11.6025 -7.785Q11.129999999999999 -7.755 10.83 -7.755H5.234999999999999V0.0ZM5.234999999999999 -10.725H10.709999999999999Q11.01 -10.725 11.3775 -10.754999999999999Q11.745 -10.785 12.075 -10.86Q13.035 -11.084999999999999 13.620000000000001 -11.692499999999999Q14.205 -12.299999999999999 14.46 -13.094999999999999Q14.715 -13.889999999999999 14.715 -14.684999999999999Q14.715 -15.479999999999999 14.46 -16.2675Q14.205 -17.055 13.620000000000001 -17.6625Q13.035 -18.27 12.075 -18.495Q11.745 -18.585 11.3775 -18.615000000000002Q11.01 -18.645 10.709999999999999 -18.645H5.234999999999999Z" fill="#9C9C9E"/>
<path transform="translate(359.92,640.00)" d="M39.525 0.44999999999999996Q36.285 0.44999999999999996 34.004999999999995 -0.9674999999999999Q31.725 -2.385 30.5175 -4.92Q29.31 -7.455 29.31 -10.799999999999999Q29.31 -14.145 30.5175 -16.68Q31.725 -19.215 34.004999999999995 -20.6325Q36.285 -22.05 39.525 -22.05Q42.75 -22.05 45.0375 -20.6325Q47.325 -19.215 48.525 -16.68Q49.724999999999994 -14.145 49.724999999999994 -10.799999999999999Q49.724999999999994 -7.455 48.525 -4.92Q47.325 -2.385 45.0375 -0.9674999999999999Q42.75 0.44999999999999996 39.525 0.44999999999999996ZM39.525 -2.5349999999999997Q41.82 -2.505 43.3425 -3.5475Q44.864999999999995 -4.59 45.629999999999995 -6.4575Q46.394999999999996 -8.325 46.394999999999996 -10.799999999999999Q46.394999999999996 -13.275 45.629999999999995 -15.127500000000001Q44.864999999999995 -16.98 43.3425 -18.015Q41.82 -19.05 39.525 -19.064999999999998Q37.230000000000004 -19.095 35.7075 -18.06Q34.185 -17.025 33.42 -15.149999999999999Q32.655 -13.275 32.64 -10.799999999999999Q32.625 -8.325 33.39 -6.4725Q34.155 -4.62 35.6925 -3.585Q37.230000000000004 -2.55 39.525 -2.5349999999999997Z" fill="#9C9C9E"/>
<path transform="translate(359.92,640.00)" d="M66.0 0.0 59.73 -21.599999999999998H63.01499999999999L67.56 -5.265L72.10499999999999 -21.585L75.405 -21.599999999999998L79.94999999999999 -5.265L84.49499999999999 -21.599999999999998H87.79499999999999L81.50999999999999 0.0H78.38999999999999L73.755 -16.155L69.11999999999999 0.0Z" fill="#9C9C9E"/>
<path transform="translate(359.92,640.00)" d="M99.89999999999999 0.0V-21.599999999999998H113.69999999999999V-18.645H103.035V-12.584999999999999H111.89999999999999V-9.629999999999999H103.035V-2.955H113.69999999999999V0.0Z" fill="#9C9C9E"/>
<path transform="translate(359.92,640.00)" d="M126.89999999999999 0.0V-21.599999999999998H135.63Q135.945 -21.599999999999998 136.41 -21.5775Q136.875 -21.555 137.295 -21.48Q139.095 -21.195 140.3025 -20.25Q141.51 -19.305 142.11 -17.865000000000002Q142.71 -16.425 142.71 -14.684999999999999Q142.71 -12.105 141.39 -10.2375Q140.07 -8.37 137.43 -7.904999999999999L136.155 -7.755H130.035V0.0ZM139.53 0.0 135.26999999999998 -8.79 138.435 -9.6 143.115 0.0ZM130.035 -10.725H135.51Q135.81 -10.725 136.1775 -10.754999999999999Q136.545 -10.785 136.875 -10.86Q137.835 -11.084999999999999 138.42000000000002 -11.692499999999999Q139.005 -12.299999999999999 139.26 -13.094999999999999Q139.515 -13.889999999999999 139.515 -14.684999999999999Q139.515 -15.479999999999999 139.26 -16.2675Q139.005 -17.055 138.42000000000002 -17.6625Q137.835 -18.27 136.875 -18.495Q136.545 -18.585 136.1775 -18.615000000000002Q135.81 -18.645 135.51 -18.645H130.035Z" fill="#9C9C9E"/>
<path transform="translate(359.92,640.00)" d="M156.015 0.0V-21.599999999999998H169.815V-18.645H159.14999999999998V-12.584999999999999H168.015V-9.629999999999999H159.14999999999998V-2.955H169.815V0.0Z" fill="#9C9C9E"/>
<path transform="translate(359.92,640.00)" d="M183.015 0.0V-21.599999999999998H189.78Q190.07999999999998 -21.599999999999998 190.89749999999998 -21.585Q191.715 -21.57 192.465 -21.465Q195.0 -21.15 196.73250000000002 -19.65Q198.465 -18.15 199.35 -15.8475Q200.23499999999999 -13.545 200.23499999999999 -10.799999999999999Q200.23499999999999 -8.04 199.35 -5.7375Q198.465 -3.435 196.73250000000002 -1.9425Q195.0 -0.44999999999999996 192.465 -0.135Q191.715 -0.03 190.89749999999998 -0.015Q190.07999999999998 0.0 189.78 0.0ZM186.225 -2.985H189.78Q190.29 -2.985 190.995 -3.0149999999999997Q191.7 -3.045 192.23999999999998 -3.135Q193.89 -3.4499999999999997 194.9175 -4.5675Q195.945 -5.685 196.425 -7.32Q196.905 -8.955 196.905 -10.799999999999999Q196.905 -12.705 196.41 -14.3325Q195.915 -15.959999999999999 194.8875 -17.0625Q193.85999999999999 -18.165 192.23999999999998 -18.465Q191.7 -18.57 190.98749999999998 -18.5925Q190.27499999999998 -18.615 189.78 -18.615H186.225Z" fill="#9C9C9E"/>
<path transform="translate(359.92,640.00)" d="M228.92999999999998 0.0V-21.599999999999998H237.42Q239.475 -21.599999999999998 240.87 -20.759999999999998Q242.265 -19.919999999999998 242.96999999999997 -18.5925Q243.67499999999998 -17.265 243.67499999999998 -15.795Q243.67499999999998 -14.01 242.79749999999999 -12.735Q241.92 -11.459999999999999 240.43499999999997 -10.995L240.40499999999997 -11.73Q242.475 -11.219999999999999 243.58499999999998 -9.7425Q244.695 -8.265 244.695 -6.3Q244.695 -4.395 243.9375 -2.985Q243.17999999999998 -1.575 241.7325 -0.7875Q240.285 0.0 238.23 0.0ZM232.10999999999999 -2.985H237.74999999999997Q238.815 -2.985 239.6625 -3.3899999999999997Q240.51 -3.795 240.9975 -4.5525Q241.48499999999999 -5.31 241.48499999999999 -6.359999999999999Q241.48499999999999 -7.335 241.0575 -8.1225Q240.63 -8.91 239.8275 -9.3675Q239.02499999999998 -9.825 237.945 -9.825H232.10999999999999ZM232.10999999999999 -12.78H237.37499999999997Q238.24499999999998 -12.78 238.9425 -13.1325Q239.64 -13.485 240.05249999999998 -14.1525Q240.46499999999997 -14.82 240.46499999999997 -15.764999999999999Q240.46499999999997 -17.025 239.625 -17.835Q238.785 -18.645 237.37499999999997 -18.645H232.10999999999999Z" fill="#9C9C9E"/>
<path transform="translate(359.92,640.00)" d="M261.585 0.0V-8.924999999999999L254.28 -21.599999999999998H257.94L263.175 -12.525L268.41 -21.599999999999998H272.07L264.765 -8.924999999999999V0.0Z" fill="#9C9C9E"/>
<path transform="translate(359.92,640.00)" d="M298.17 0.0V-21.599999999999998H301.305V-12.285H312.105V-21.599999999999998H315.255V0.0H312.105V-9.33H301.305V0.0Z" fill="#9C9C9E"/>
<path transform="translate(359.92,640.00)" d="M338.07 0.44999999999999996Q334.83 0.44999999999999996 332.54999999999995 -0.9674999999999999Q330.27 -2.385 329.0625 -4.92Q327.85499999999996 -7.455 327.85499999999996 -10.799999999999999Q327.85499999999996 -14.145 329.0625 -16.68Q330.27 -19.215 332.54999999999995 -20.6325Q334.83 -22.05 338.07 -22.05Q341.805 -22.05 344.2575 -20.16Q346.71 -18.27 347.66999999999996 -15.075L344.49 -14.219999999999999Q343.86 -16.485 342.2475 -17.775Q340.635 -19.064999999999998 338.07 -19.064999999999998Q335.775 -19.064999999999998 334.245 -18.03Q332.715 -16.995 331.9425 -15.135000000000002Q331.16999999999996 -13.275 331.16999999999996 -10.799999999999999Q331.155 -8.325 331.9275 -6.465Q332.7 -4.6049999999999995 334.23749999999995 -3.5699999999999994Q335.775 -2.5349999999999997 338.07 -2.5349999999999997Q340.635 -2.5349999999999997 342.2475 -3.8324999999999996Q343.86 -5.13 344.49 -7.38L347.66999999999996 -6.5249999999999995Q346.71 -3.33 344.2575 -1.44Q341.805 0.44999999999999996 338.07 0.44999999999999996Z" fill="#9C9C9E"/>
<path transform="translate(359.92,640.00)" d="M369.405 0.44999999999999996Q367.22999999999996 0.44999999999999996 365.4 -0.3075Q363.57 -1.065 362.21999999999997 -2.5199999999999996Q360.86999999999995 -3.9749999999999996 360.11999999999995 -6.06Q359.36999999999995 -8.145 359.36999999999995 -10.799999999999999Q359.36999999999995 -14.295 360.645 -16.8075Q361.91999999999996 -19.32 364.18499999999995 -20.677500000000002Q366.45 -22.035 369.405 -22.035Q373.215 -22.035 375.48749999999995 -20.265Q377.76 -18.495 378.585 -15.375L375.405 -14.805Q374.74499999999995 -16.74 373.275 -17.895Q371.80499999999995 -19.05 369.585 -19.064999999999998Q367.28999999999996 -19.08 365.7674999999999 -18.044999999999998Q364.24499999999995 -17.009999999999998 363.47999999999996 -15.142499999999998Q362.715 -13.275 362.7 -10.799999999999999Q362.68499999999995 -8.325 363.44999999999993 -6.4725Q364.215 -4.62 365.75249999999994 -3.585Q367.28999999999996 -2.55 369.585 -2.5349999999999997Q371.42999999999995 -2.505 372.75749999999994 -3.2175Q374.085 -3.9299999999999997 374.865 -5.31Q375.645 -6.6899999999999995 375.86999999999995 -8.7H371.66999999999996V-11.219999999999999H379.2Q379.22999999999996 -10.95 379.245 -10.5075Q379.26 -10.065 379.26 -9.945Q379.26 -6.944999999999999 378.105 -4.59Q376.95 -2.235 374.745 -0.8925Q372.53999999999996 0.44999999999999996 369.405 0.44999999999999996Z" fill="#9C9C9E"/>
</svg>